<svg width="512" height="512" viewBox="0 0 512 512" fill="none" xmlns="http://www.w3.org/2000/svg">
<rect width="512" height="512" fill="black"/>
<rect width="384" height="384" transform="translate(64 64)" fill="black"/>
<path fill-rule="evenodd" clip-rule="evenodd" d="M176 96H160V112H176V128H192V144H176V160H160V176H176V160H192V144H208V160H224V176H240V160H224V144H208V128H224V112H240V96H224V112H208V128H192V112H176V96Z" fill="#C2C3C7"/>
<path fill-rule="evenodd" clip-rule="evenodd" d="M272 80H288V96H304H320H336V112H320H304H288V128V144V160H272V144V128V112H256V96H272V80ZM320 160H304H288V176H304H320H336V160H320Z" fill="#C2C3C7"/>
<path fill-rule="evenodd" clip-rule="evenodd" d="M368 112H352V128H368H384H400H416H432V112H416H400H384H368Z" fill="#C2C3C7"/>
<path fill-rule="evenodd" clip-rule="evenodd" d="M96 192H112V208H96V192ZM80 224V208H96V224H80ZM128 224V240V256H112H96H80V240V224H64V240V256V272V288V304H80V288V272H96H112H128V288V304H144V288V272V256V240V224H128ZM128 224V208H112V224H128Z" fill="#C2C3C7"/>
<path fill-rule="evenodd" clip-rule="evenodd" d="M192 192H176V208H160V224V240H176V256H192H208H224V272V288H208H192H176V272H160V288H176V304H192H208H224V288H240V272V256H224V240H208H192H176V224V208H192H208H224V224H240V208H224V192H208H192Z" fill="#C2C3C7"/>
<path fill-rule="evenodd" clip-rule="evenodd" d="M288 192H272V208H256V224V240V256V272V288H272V304H288H304H320V288H336V272H320V288H304H288H272V272V256V240V224V208H288H304H320V224H336V208H320V192H304H288Z" fill="#C2C3C7"/>
<path fill-rule="evenodd" clip-rule="evenodd" d="M368 192H352V208H368V224V240V256V272V288H352V304H368H384H400H416H432V288H416V272V256V240V224V208H432V192H416H400H384H368ZM384 288H400V272V256V240V224V208H384V224V240V256V272V288Z" fill="#00E436"/>
<path fill-rule="evenodd" clip-rule="evenodd" d="M80 320H64V336V352V368V384V400V416V432H80V416V400V384H96H112H128V368H144V352V336H128V320H112H96H80ZM128 336H112H96H80V352V368H96H112H128V352V336Z" fill="#C2C3C7"/>
<path fill-rule="evenodd" clip-rule="evenodd" d="M160 320H176H192H208V336V352V368V384V400V416H192V400V384V368V352V336H176H160V320ZM224 416H208V432H224H240V416H224Z" fill="#C2C3C7"/>
<path fill-rule="evenodd" clip-rule="evenodd" d="M272 352H288H304H320V368H304H288H272V352ZM272 416H256V400V384V368H272V384V400V416ZM304 416H288H272V432H288H304H320V416H336V400V384V368H320V384V400V416H304Z" fill="#C2C3C7"/>
<path fill-rule="evenodd" clip-rule="evenodd" d="M368 336H384V352H400H416H432V368H416H400H384V384V400V416H368V400V384V368H352V352H368V336ZM416 416H400H384V432H400H416H432V416H416Z" fill="#C2C3C7"/>
<path fill-rule="evenodd" clip-rule="evenodd" d="M64 64H80H96H112H128H144V80H128H112H96H80H64V64ZM112 160H128H144V176H128H112H96H80H64V160H80H96H112ZM80 112H64V128H80H96H112H128V112H112H96H80Z" fill="#83769C"/>
</svg>
