<svg width="512" height="512" viewBox="0 0 512 512" fill="none" xmlns="http://www.w3.org/2000/svg">
<rect width="512" height="512" fill="black"/>
<path d="M160 64H64V192H160V64Z" fill="black"/>
<path d="M256 64H160V192H256V64Z" fill="black"/>
<path d="M176 96H160V112H176V96Z" fill="#C2C3C7"/>
<path d="M240 96H224V112H240V96Z" fill="#C2C3C7"/>
<path d="M192 112H176V128H192V112Z" fill="#C2C3C7"/>
<path d="M224 112H208V128H224V112Z" fill="#C2C3C7"/>
<path d="M208 128H192V144H208V128Z" fill="#C2C3C7"/>
<path d="M192 144H176V160H192V144Z" fill="#C2C3C7"/>
<path d="M224 144H208V160H224V144Z" fill="#C2C3C7"/>
<path d="M176 160H160V176H176V160Z" fill="#C2C3C7"/>
<path d="M240 160H224V176H240V160Z" fill="#C2C3C7"/>
<path d="M352 64H256V192H352V64Z" fill="black"/>
<path d="M288 80H272V96H288V80Z" fill="#C2C3C7"/>
<path d="M272 96H256V112H272V96Z" fill="#C2C3C7"/>
<path d="M288 96H272V112H288V96Z" fill="#C2C3C7"/>
<path d="M304 96H288V112H304V96Z" fill="#C2C3C7"/>
<path d="M320 96H304V112H320V96Z" fill="#C2C3C7"/>
<path d="M336 96H320V112H336V96Z" fill="#C2C3C7"/>
<path d="M288 112H272V128H288V112Z" fill="#C2C3C7"/>
<path d="M288 128H272V144H288V128Z" fill="#C2C3C7"/>
<path d="M288 144H272V160H288V144Z" fill="#C2C3C7"/>
<path d="M304 160H288V176H304V160Z" fill="#C2C3C7"/>
<path d="M320 160H304V176H320V160Z" fill="#C2C3C7"/>
<path d="M336 160H320V176H336V160Z" fill="#C2C3C7"/>
<path d="M448 64H352V192H448V64Z" fill="black"/>
<path d="M368 112H352V128H368V112Z" fill="#C2C3C7"/>
<path d="M384 112H368V128H384V112Z" fill="#C2C3C7"/>
<path d="M400 112H384V128H400V112Z" fill="#C2C3C7"/>
<path d="M416 112H400V128H416V112Z" fill="#C2C3C7"/>
<path d="M432 112H416V128H432V112Z" fill="#C2C3C7"/>
<path d="M160 192H64V320H160V192Z" fill="black"/>
<path d="M112 192H96V208H112V192Z" fill="#C2C3C7"/>
<path d="M96 208H80V224H96V208Z" fill="#C2C3C7"/>
<path d="M128 208H112V224H128V208Z" fill="#C2C3C7"/>
<path d="M80 224H64V240H80V224Z" fill="#C2C3C7"/>
<path d="M144 224H128V240H144V224Z" fill="#C2C3C7"/>
<path d="M80 240H64V256H80V240Z" fill="#C2C3C7"/>
<path d="M144 240H128V256H144V240Z" fill="#C2C3C7"/>
<path d="M80 256H64V272H80V256Z" fill="#C2C3C7"/>
<path d="M96 256H80V272H96V256Z" fill="#C2C3C7"/>
<path d="M112 256H96V272H112V256Z" fill="#C2C3C7"/>
<path d="M128 256H112V272H128V256Z" fill="#C2C3C7"/>
<path d="M144 256H128V272H144V256Z" fill="#C2C3C7"/>
<path d="M80 272H64V288H80V272Z" fill="#C2C3C7"/>
<path d="M144 272H128V288H144V272Z" fill="#C2C3C7"/>
<path d="M80 288H64V304H80V288Z" fill="#C2C3C7"/>
<path d="M144 288H128V304H144V288Z" fill="#C2C3C7"/>
<path d="M256 192H160V320H256V192Z" fill="black"/>
<path d="M192 192H176V208H192V192Z" fill="#C2C3C7"/>
<path d="M208 192H192V208H208V192Z" fill="#C2C3C7"/>
<path d="M224 192H208V208H224V192Z" fill="#C2C3C7"/>
<path d="M176 208H160V224H176V208Z" fill="#C2C3C7"/>
<path d="M240 208H224V224H240V208Z" fill="#C2C3C7"/>
<path d="M176 224H160V240H176V224Z" fill="#C2C3C7"/>
<path d="M192 240H176V256H192V240Z" fill="#C2C3C7"/>
<path d="M208 240H192V256H208V240Z" fill="#C2C3C7"/>
<path d="M224 240H208V256H224V240Z" fill="#C2C3C7"/>
<path d="M240 256H224V272H240V256Z" fill="#C2C3C7"/>
<path d="M176 272H160V288H176V272Z" fill="#C2C3C7"/>
<path d="M240 272H224V288H240V272Z" fill="#C2C3C7"/>
<path d="M192 288H176V304H192V288Z" fill="#C2C3C7"/>
<path d="M208 288H192V304H208V288Z" fill="#C2C3C7"/>
<path d="M224 288H208V304H224V288Z" fill="#C2C3C7"/>
<path d="M352 192H256V320H352V192Z" fill="black"/>
<path d="M288 192H272V208H288V192Z" fill="#C2C3C7"/>
<path d="M304 192H288V208H304V192Z" fill="#C2C3C7"/>
<path d="M320 192H304V208H320V192Z" fill="#C2C3C7"/>
<path d="M272 208H256V224H272V208Z" fill="#C2C3C7"/>
<path d="M336 208H320V224H336V208Z" fill="#C2C3C7"/>
<path d="M272 224H256V240H272V224Z" fill="#C2C3C7"/>
<path d="M272 240H256V256H272V240Z" fill="#C2C3C7"/>
<path d="M272 256H256V272H272V256Z" fill="#C2C3C7"/>
<path d="M272 272H256V288H272V272Z" fill="#C2C3C7"/>
<path d="M336 272H320V288H336V272Z" fill="#C2C3C7"/>
<path d="M288 288H272V304H288V288Z" fill="#C2C3C7"/>
<path d="M304 288H288V304H304V288Z" fill="#C2C3C7"/>
<path d="M320 288H304V304H320V288Z" fill="#C2C3C7"/>
<path d="M448 192H352V320H448V192Z" fill="black"/>
<path d="M384 192H368V208H384V192Z" fill="#00E436"/>
<path d="M400 192H384V208H400V192Z" fill="#00E436"/>
<path d="M416 192H400V208H416V192Z" fill="#00E436"/>
<path d="M384 208H368V224H384V208Z" fill="#00E436"/>
<path d="M416 208H400V224H416V208Z" fill="#00E436"/>
<path d="M416 224H400V240H416V224Z" fill="#00E436"/>
<path d="M416 240H400V256H416V240Z" fill="#00E436"/>
<path d="M416 256H400V272H416V256Z" fill="#00E436"/>
<path d="M416 272H400V288H416V272Z" fill="#00E436"/>
<path d="M384 224H368V240H384V224Z" fill="#00E436"/>
<path d="M368 192H352V208H368V192Z" fill="#00E436"/>
<path d="M432 192H416V208H432V192Z" fill="#00E436"/>
<path d="M384 240H368V256H384V240Z" fill="#00E436"/>
<path d="M384 256H368V272H384V256Z" fill="#00E436"/>
<path d="M384 272H368V288H384V272Z" fill="#00E436"/>
<path d="M368 288H352V304H368V288Z" fill="#00E436"/>
<path d="M384 288H368V304H384V288Z" fill="#00E436"/>
<path d="M400 288H384V304H400V288Z" fill="#00E436"/>
<path d="M416 288H400V304H416V288Z" fill="#00E436"/>
<path d="M432 288H416V304H432V288Z" fill="#00E436"/>
<path d="M160 320H64V448H160V320Z" fill="black"/>
<path d="M80 320H64V336H80V320Z" fill="#C2C3C7"/>
<path d="M96 320H80V336H96V320Z" fill="#C2C3C7"/>
<path d="M112 320H96V336H112V320Z" fill="#C2C3C7"/>
<path d="M128 320H112V336H128V320Z" fill="#C2C3C7"/>
<path d="M80 336H64V352H80V336Z" fill="#C2C3C7"/>
<path d="M144 336H128V352H144V336Z" fill="#C2C3C7"/>
<path d="M80 352H64V368H80V352Z" fill="#C2C3C7"/>
<path d="M144 352H128V368H144V352Z" fill="#C2C3C7"/>
<path d="M80 368H64V384H80V368Z" fill="#C2C3C7"/>
<path d="M96 368H80V384H96V368Z" fill="#C2C3C7"/>
<path d="M112 368H96V384H112V368Z" fill="#C2C3C7"/>
<path d="M128 368H112V384H128V368Z" fill="#C2C3C7"/>
<path d="M80 384H64V400H80V384Z" fill="#C2C3C7"/>
<path d="M80 400H64V416H80V400Z" fill="#C2C3C7"/>
<path d="M80 416H64V432H80V416Z" fill="#C2C3C7"/>
<path d="M256 320H160V448H256V320Z" fill="black"/>
<path d="M176 320H160V336H176V320Z" fill="#C2C3C7"/>
<path d="M192 320H176V336H192V320Z" fill="#C2C3C7"/>
<path d="M208 320H192V336H208V320Z" fill="#C2C3C7"/>
<path d="M208 336H192V352H208V336Z" fill="#C2C3C7"/>
<path d="M208 352H192V368H208V352Z" fill="#C2C3C7"/>
<path d="M208 368H192V384H208V368Z" fill="#C2C3C7"/>
<path d="M208 384H192V400H208V384Z" fill="#C2C3C7"/>
<path d="M208 400H192V416H208V400Z" fill="#C2C3C7"/>
<path d="M224 416H208V432H224V416Z" fill="#C2C3C7"/>
<path d="M240 416H224V432H240V416Z" fill="#C2C3C7"/>
<path d="M352 320H256V448H352V320Z" fill="black"/>
<path d="M288 352H272V368H288V352Z" fill="#C2C3C7"/>
<path d="M304 352H288V368H304V352Z" fill="#C2C3C7"/>
<path d="M320 352H304V368H320V352Z" fill="#C2C3C7"/>
<path d="M272 368H256V384H272V368Z" fill="#C2C3C7"/>
<path d="M336 368H320V384H336V368Z" fill="#C2C3C7"/>
<path d="M272 384H256V400H272V384Z" fill="#C2C3C7"/>
<path d="M336 384H320V400H336V384Z" fill="#C2C3C7"/>
<path d="M272 400H256V416H272V400Z" fill="#C2C3C7"/>
<path d="M336 400H320V416H336V400Z" fill="#C2C3C7"/>
<path d="M288 416H272V432H288V416Z" fill="#C2C3C7"/>
<path d="M304 416H288V432H304V416Z" fill="#C2C3C7"/>
<path d="M320 416H304V432H320V416Z" fill="#C2C3C7"/>
<path d="M448 320H352V448H448V320Z" fill="black"/>
<path d="M384 336H368V352H384V336Z" fill="#C2C3C7"/>
<path d="M368 352H352V368H368V352Z" fill="#C2C3C7"/>
<path d="M384 352H368V368H384V352Z" fill="#C2C3C7"/>
<path d="M400 352H384V368H400V352Z" fill="#C2C3C7"/>
<path d="M416 352H400V368H416V352Z" fill="#C2C3C7"/>
<path d="M432 352H416V368H432V352Z" fill="#C2C3C7"/>
<path d="M384 368H368V384H384V368Z" fill="#C2C3C7"/>
<path d="M384 384H368V400H384V384Z" fill="#C2C3C7"/>
<path d="M384 400H368V416H384V400Z" fill="#C2C3C7"/>
<path d="M400 416H384V432H400V416Z" fill="#C2C3C7"/>
<path d="M416 416H400V432H416V416Z" fill="#C2C3C7"/>
<path d="M432 416H416V432H432V416Z" fill="#C2C3C7"/>
<path d="M128 160H112V176H128V160Z" fill="#83769C"/>
<path d="M80 64H64V80H80V64Z" fill="#83769C"/>
<path d="M96 64H80V80H96V64Z" fill="#83769C"/>
<path d="M112 64H96V80H112V64Z" fill="#83769C"/>
<path d="M128 64H112V80H128V64Z" fill="#83769C"/>
<path d="M144 64H128V80H144V64Z" fill="#83769C"/>
<path d="M80 112H64V128H80V112Z" fill="#83769C"/>
<path d="M96 112H80V128H96V112Z" fill="#83769C"/>
<path d="M112 112H96V128H112V112Z" fill="#83769C"/>
<path d="M128 112H112V128H128V112Z" fill="#83769C"/>
<path d="M80 160H64V176H80V160Z" fill="#83769C"/>
<path d="M96 160H80V176H96V160Z" fill="#83769C"/>
<path d="M112 160H96V176H112V160Z" fill="#83769C"/>
<path d="M144 160H128V176H144V160Z" fill="#83769C"/>
</svg>
