<svg width="512" height="512" viewBox="0 0 512 512" fill="none" xmlns="http://www.w3.org/2000/svg">
<rect width="512" height="512" fill="black"/>
<rect width="384" height="384" transform="translate(64 64)" fill="black"/>
<path fill-rule="evenodd" clip-rule="evenodd" d="M76 160H88H100H112H124H136H148V172H136H124H112H100H88H76V160ZM88 196H76V208H88H100H112H124V196H112H100H88ZM88 232H76V244H88H100H112H124H136H148V232H136H124H112H100H88Z" fill="#83769C"/>
<path fill-rule="evenodd" clip-rule="evenodd" d="M172 184H184H196V196H208H220V184H232H244V196H232V208H220V220H232V232H244V244H232H220V232H208H196V244H184H172V232H184V220H196V208H184V196H172V184Z" fill="#FFF1E8"/>
<path fill-rule="evenodd" clip-rule="evenodd" d="M280 160H292H304V172V184H316H328V196H316H304V208V220V232H316H328V244H316H304H292V232H280V220V208V196H268V184H280V172V160Z" fill="#FFF1E8"/>
<path fill-rule="evenodd" clip-rule="evenodd" d="M376 208H388H400H412H424V220H412H400H388H376V208Z" fill="#FFF1E8"/>
<path fill-rule="evenodd" clip-rule="evenodd" d="M100 256H112H124V268H136V280H148V292V304V316V328V340H136H124V328V316H112H100V328V340H88H76V328V316V304V292V280H88V268H100V256ZM124 304V292V280H112H100V292V304H112H124Z" fill="#FFF1E8"/>
<path fill-rule="evenodd" clip-rule="evenodd" d="M184 256H196H208H220H232V268H244V280H232H220V268H208H196V280V292H208H220H232V304H244V316V328H232V340H220H208H196H184V328H172V316H184H196V328H208H220V316V304H208H196H184V292H172V280V268H184V256Z" fill="#FFF1E8"/>
<path fill-rule="evenodd" clip-rule="evenodd" d="M280 256H292H304H316H328V268H340V280H328H316V268H304H292V280V292V304V316V328H304H316V316H328H340V328H328V340H316H304H292H280V328H268V316V304V292V280V268H280V256Z" fill="#FFF1E8"/>
<path fill-rule="evenodd" clip-rule="evenodd" d="M364 256H376H388H400H412H424H436V268H424V280V292V304V316V328H436V340H424H412H400H388H376H364V328H376V316V304V292V280V268H364V256ZM412 328V316V304V292V280V268H400H388V280V292V304V316V328H400H412Z" fill="#00E436"/>
<path fill-rule="evenodd" clip-rule="evenodd" d="M76 352H88H100H112H124H136V364H148V376V388H136V400H124H112H100V412V424V436H88H76V424V412V400V388V376V364V352ZM124 388H112H100V376V364H112H124V376V388Z" fill="#FFF1E8"/>
<path fill-rule="evenodd" clip-rule="evenodd" d="M196 352H208H220V364V376V388V400V412V424H232V436H220H208V424H196V412V400V388V376V364V352Z" fill="#FFF1E8"/>
<path fill-rule="evenodd" clip-rule="evenodd" d="M280 376H292H304H316H328V388H340V400V412V424H328V436H316H304H292H280V424H268V412V400V388H280V376ZM316 424H304H292V412V400V388H304H316V400V412V424Z" fill="#FFF1E8"/>
<path fill-rule="evenodd" clip-rule="evenodd" d="M376 352H388H400V364V376H412H424V388H412H400V400V412V424H412H424V436H412H400H388V424H376V412V400V388H364V376H376V364V352Z" fill="#FFF1E8"/>
</svg>
